<svg xmlns="http://www.w3.org/2000/svg" viewBox="0 0 32 32">
  <defs>
    <linearGradient id="bg" x1="0%" y1="0%" x2="100%" y2="100%">
      <stop offset="0%" style="stop-color:#3b82f6"/>
      <stop offset="100%" style="stop-color:#1d4ed8"/>
    </linearGradient>
  </defs>
  <!-- Background -->
  <rect width="32" height="32" rx="6" fill="url(#bg)"/>
  <!-- S curve (white) -->
  <path d="M6 8 Q10 8 10 12 Q10 16 16 16 Q22 16 22 20 Q22 24 26 24"
        stroke="white" stroke-width="2.5" fill="none" stroke-linecap="round"/>
  <!-- P curve (light blue) -->
  <path d="M8 6 Q8 10 12 10 Q16 10 16 16 Q16 22 20 22 Q24 22 24 26"
        stroke="#93c5fd" stroke-width="2.5" fill="none" stroke-linecap="round"/>
  <!-- Grid dots -->
  <circle cx="10" cy="10" r="1.5" fill="white" opacity="0.6"/>
  <circle cx="16" cy="10" r="1.5" fill="white" opacity="0.6"/>
  <circle cx="22" cy="10" r="1.5" fill="white" opacity="0.6"/>
  <circle cx="10" cy="16" r="1.5" fill="white" opacity="0.6"/>
  <circle cx="16" cy="16" r="1.5" fill="white" opacity="0.8"/>
  <circle cx="22" cy="16" r="1.5" fill="white" opacity="0.6"/>
  <circle cx="10" cy="22" r="1.5" fill="white" opacity="0.6"/>
  <circle cx="16" cy="22" r="1.5" fill="white" opacity="0.6"/>
  <circle cx="22" cy="22" r="1.5" fill="white" opacity="0.6"/>
</svg>
