<svg xmlns="http://www.w3.org/2000/svg" viewBox="0 0 192 192">
  <defs>
    <linearGradient id="bg192" x1="0%" y1="0%" x2="100%" y2="100%">
      <stop offset="0%" style="stop-color:#3b82f6"/>
      <stop offset="100%" style="stop-color:#1d4ed8"/>
    </linearGradient>
  </defs>
  <!-- Background -->
  <rect width="192" height="192" rx="36" fill="url(#bg192)"/>
  <!-- S curve (white) -->
  <path d="M36 48 Q60 48 60 72 Q60 96 96 96 Q132 96 132 120 Q132 144 156 144"
        stroke="white" stroke-width="12" fill="none" stroke-linecap="round"/>
  <!-- P curve (light blue) -->
  <path d="M48 36 Q48 60 72 60 Q96 60 96 96 Q96 132 120 132 Q144 132 144 156"
        stroke="#93c5fd" stroke-width="12" fill="none" stroke-linecap="round"/>
  <!-- Grid dots -->
  <circle cx="60" cy="60" r="8" fill="white" opacity="0.6"/>
  <circle cx="96" cy="60" r="8" fill="white" opacity="0.6"/>
  <circle cx="132" cy="60" r="8" fill="white" opacity="0.6"/>
  <circle cx="60" cy="96" r="8" fill="white" opacity="0.6"/>
  <circle cx="96" cy="96" r="10" fill="white" opacity="0.9"/>
  <circle cx="132" cy="96" r="8" fill="white" opacity="0.6"/>
  <circle cx="60" cy="132" r="8" fill="white" opacity="0.6"/>
  <circle cx="96" cy="132" r="8" fill="white" opacity="0.6"/>
  <circle cx="132" cy="132" r="8" fill="white" opacity="0.6"/>
</svg>
